<?xml version="1.0" standalone="no"?>
<!DOCTYPE svg PUBLIC "-//W3C//DTD SVG 20010904//EN"
 "http://www.w3.org/TR/2001/REC-SVG-20010904/DTD/svg10.dtd">
<svg version="1.0" xmlns="http://www.w3.org/2000/svg"
 width="658.000000pt" height="621.000000pt" viewBox="0 0 658.000000 621.000000"
 preserveAspectRatio="xMidYMid meet">

<g transform="translate(0.000000,621.000000) scale(0.100000,-0.100000)"
fill="#000000" stroke="none">
<path d="M2910 5044 c-50 -21 -1836 -1805 -1861 -1859 -24 -51 -24 -109 0
-160 27 -57 1811 -1838 1863 -1860 96 -39 221 13 257 108 16 40 14 111 -4 155
-11 26 -223 243 -743 759 l-727 722 1840 1 1841 0 44 23 c24 12 58 39 74 60
28 35 31 45 31 112 0 67 -3 77 -31 112 -16 21 -50 48 -74 61 l-44 22 -1841 0
-1840 1 728 722 c521 517 731 733 742 759 18 44 20 115 4 155 -36 95 -164 148
-259 107z"/>
</g>
</svg>
